<svg width="50" height="50" viewBox="0 0 50 50" fill="none" xmlns="http://www.w3.org/2000/svg">
<circle cx="25" cy="25" r="25" fill="#FAFAFA"/>
<path d="M32.8333 33.875V31.7917C32.8333 30.6866 32.3943 29.6268 31.6129 28.8454C30.8315 28.064 29.7717 27.625 28.6666 27.625H20.3333C19.2282 27.625 18.1684 28.064 17.387 28.8454C16.6056 29.6268 16.1666 30.6866 16.1666 31.7917V33.875" stroke="#808080" stroke-width="2" stroke-linecap="round" stroke-linejoin="round"/>
<path d="M24.5 23.4583C26.8012 23.4583 28.6667 21.5929 28.6667 19.2917C28.6667 16.9905 26.8012 15.125 24.5 15.125C22.1989 15.125 20.3334 16.9905 20.3334 19.2917C20.3334 21.5929 22.1989 23.4583 24.5 23.4583Z" stroke="#808080" stroke-width="2" stroke-linecap="round" stroke-linejoin="round"/>
</svg>
